<svg width="20" height="20" viewBox="0 0 20 20" fill="none" xmlns="http://www.w3.org/2000/svg">
<path d="M18.3333 7.50001V6.66668C18.3333 6.20834 17.9583 5.83334 17.5 5.83334C17.0417 5.83334 16.6667 6.20834 16.6667 6.66668V7.50001H15.8333C15.375 7.50001 15 7.87501 15 8.33334C15 8.79168 15.375 9.16668 15.8333 9.16668H16.6667V10C16.6667 10.4583 17.0417 10.8333 17.5 10.8333C17.9583 10.8333 18.3333 10.4583 18.3333 10V9.16668H19.1667C19.625 9.16668 20 8.79168 20 8.33334C20 7.87501 19.625 7.50001 19.1667 7.50001H18.3333Z" fill="#4A4A4A"/>
<path  d="M6.66732 10C8.50898 10 10.0007 8.50834 10.0007 6.66668C10.0007 4.82501 8.50898 3.33334 6.66732 3.33334C4.82565 3.33334 3.33398 4.82501 3.33398 6.66668C3.33398 8.50834 4.82565 10 6.66732 10Z" fill="#4A4A4A"/>
<path  d="M6.66667 10.8333C4.44167 10.8333 0 11.95 0 14.1667V16.6667H13.3333V14.1667C13.3333 11.95 8.89167 10.8333 6.66667 10.8333Z" fill="#4A4A4A"/>
<path d="M10.4258 3.375C11.1924 4.25833 11.6674 5.40833 11.6674 6.66667C11.6674 7.925 11.1924 9.075 10.4258 9.95833C12.0591 9.75 13.3341 8.36667 13.3341 6.66667C13.3341 4.96667 12.0591 3.58333 10.4258 3.375Z" fill="#4A4A4A"/>
<path d="M13.7754 11.525C14.5171 12.2167 15.0004 13.0834 15.0004 14.1667V16.6667H16.6671V14.1667C16.6671 12.9584 15.3421 12.075 13.7754 11.525Z" fill="#4A4A4A"/>
</svg>
