<svg width="16" height="16" viewBox="0 0 16 16" fill="none" xmlns="http://www.w3.org/2000/svg">
<path d="M7.99992 1.33325C4.31992 1.33325 1.33325 4.31992 1.33325 7.99992C1.33325 11.6799 4.31992 14.6666 7.99992 14.6666C11.6799 14.6666 14.6666 11.6799 14.6666 7.99992C14.6666 4.31992 11.6799 1.33325 7.99992 1.33325ZM8.66659 12.6666H7.33325V11.3333H8.66659V12.6666ZM10.0466 7.49992L9.44659 8.11325C8.96659 8.59992 8.66659 8.99992 8.66659 9.99992H7.33325V9.66659C7.33325 8.93325 7.63325 8.26659 8.11325 7.77992L8.93992 6.93992C9.18659 6.69992 9.33325 6.36659 9.33325 5.99992C9.33325 5.26659 8.73325 4.66659 7.99992 4.66659C7.26659 4.66659 6.66659 5.26659 6.66659 5.99992H5.33325C5.33325 4.52659 6.52659 3.33325 7.99992 3.33325C9.47325 3.33325 10.6666 4.52659 10.6666 5.99992C10.6666 6.58659 10.4266 7.11992 10.0466 7.49992Z" fill="#7E3076"/>
</svg>
